<svg width="20" height="20" viewBox="0 0 20 20" fill="none" xmlns="http://www.w3.org/2000/svg">
<g clip-path="url(#clip0_1278_1191)">
<path d="M7.77778 15.5556L2.92684 10.7046C2.53729 10.3151 2.53617 9.68383 2.92434 9.2929L3.08179 9.13433C3.47191 8.74145 4.107 8.74033 4.4985 9.13183L7.07067 11.704C7.4612 12.0945 8.09436 12.0945 8.48488 11.704L15.5015 4.68739C15.893 4.29589 16.5281 4.29701 16.9182 4.68989L17.7778 5.55556M17.7778 0H2.22222C0.988889 0 0 0.988889 0 2.22222V17.7778C0 18.3671 0.234126 18.9324 0.650874 19.3491C1.06762 19.7659 1.63285 20 2.22222 20H17.7778C18.3671 20 18.9324 19.7659 19.3491 19.3491C19.7659 18.9324 20 18.3671 20 17.7778V2.22222C20 1.63285 19.7659 1.06762 19.3491 0.650874C18.9324 0.234126 18.3671 0 17.7778 0Z" fill="#4D5BBE"/>
</g>
<defs>
<clipPath id="clip0_1278_1191">
<rect width="20" height="20" rx="4" fill="white"/>
</clipPath>
</defs>
</svg>
