<svg width="18" height="18" viewBox="0 0 18 18" fill="none" xmlns="http://www.w3.org/2000/svg">
<path d="M9 1.6875C7.55373 1.6875 6.13993 2.11637 4.9374 2.91988C3.73486 3.72339 2.7976 4.86544 2.24413 6.20163C1.69067 7.53781 1.54586 9.00811 1.82801 10.4266C2.11017 11.8451 2.80661 13.148 3.82928 14.1707C4.85196 15.1934 6.15492 15.8898 7.57341 16.172C8.99189 16.4541 10.4622 16.3093 11.7984 15.7559C13.1346 15.2024 14.2766 14.2651 15.0801 13.0626C15.8836 11.8601 16.3125 10.4463 16.3125 9C16.3105 7.06123 15.5394 5.20246 14.1685 3.83154C12.7975 2.46063 10.9388 1.68955 9 1.6875ZM9 15.1875C7.77623 15.1875 6.57994 14.8246 5.56241 14.1447C4.54488 13.4648 3.75182 12.4985 3.2835 11.3679C2.81518 10.2372 2.69265 8.99314 2.93139 7.79288C3.17014 6.59262 3.75944 5.49011 4.62478 4.62478C5.49012 3.75944 6.59262 3.17014 7.79288 2.93139C8.99314 2.69265 10.2372 2.81518 11.3679 3.2835C12.4985 3.75181 13.4648 4.54488 14.1447 5.56241C14.8246 6.57994 15.1875 7.77623 15.1875 9C15.1856 10.6405 14.5331 12.2132 13.3732 13.3732C12.2132 14.5331 10.6405 15.1856 9 15.1875ZM6.75 9C6.75 9.47224 6.89859 9.9325 7.17471 10.3156C7.45083 10.6987 7.84049 10.9852 8.28849 11.1345C8.73649 11.2839 9.22013 11.2885 9.67088 11.1477C10.1216 11.0069 10.5167 10.7278 10.8 10.35C10.8896 10.2307 11.023 10.1518 11.1707 10.1308C11.3185 10.1097 11.4685 10.1482 11.5879 10.2379C11.7072 10.3275 11.7861 10.4608 11.8071 10.6086C11.8281 10.7563 11.7896 10.9064 11.7 11.0257C11.2749 11.5922 10.6823 12.0106 10.0062 12.2217C9.33011 12.4327 8.60475 12.4257 7.93285 12.2017C7.26094 11.9776 6.67656 11.5478 6.26246 10.9732C5.84836 10.3986 5.62553 9.70828 5.62553 9C5.62553 8.29172 5.84836 7.60139 6.26246 7.02678C6.67656 6.45217 7.26094 6.0224 7.93285 5.79833C8.60475 5.57427 9.33011 5.56727 10.0062 5.77832C10.6823 5.98937 11.2749 6.40779 11.7 6.9743C11.7444 7.03339 11.7767 7.10065 11.795 7.17222C11.8134 7.2438 11.8175 7.31829 11.8071 7.39145C11.7967 7.46461 11.772 7.535 11.7343 7.5986C11.6967 7.66221 11.6469 7.71778 11.5879 7.76215C11.5288 7.80652 11.4615 7.83881 11.3899 7.85718C11.3184 7.87556 11.2439 7.87966 11.1707 7.86924C11.0975 7.85883 11.0272 7.83411 10.9635 7.79649C10.8999 7.75887 10.8444 7.7091 10.8 7.65C10.5167 7.27221 10.1216 6.99315 9.67088 6.85234C9.22013 6.71154 8.73649 6.71613 8.28849 6.86546C7.84049 7.0148 7.45083 7.3013 7.17471 7.6844C6.89859 8.0675 6.75 8.52776 6.75 9Z" fill="#4D5BBE"/>
</svg>
