<svg width="24" height="24" viewBox="0 0 24 24" fill="none" xmlns="http://www.w3.org/2000/svg">
<path d="M19.5 5.15L18.88 14.1725C18.722 16.4774 18.643 17.6303 18 18.4592C17.6826 18.8689 17.2739 19.2146 16.8 19.4744C15.843 20 14.56 20 11.994 20C9.424 20 8.139 20 7.18 19.4735C6.70589 19.2132 6.29721 18.8668 5.98 18.4565C5.338 17.6267 5.26 16.472 5.106 14.1635L4.5 5.15M9 10.7615H15M10.5 14.2886H13.5M3 5.15H21M16.055 5.15L15.373 3.8828C14.919 3.0404 14.693 2.6201 14.302 2.3573C14.2151 2.29908 14.1232 2.24731 14.027 2.2025C13.594 2 13.074 2 12.034 2C10.969 2 10.436 2 9.995 2.2106C9.89752 2.25759 9.80453 2.31178 9.717 2.3726C9.321 2.6453 9.1 3.0818 8.658 3.9539L8.053 5.15" stroke="#4D5BBE" stroke-linecap="round" stroke-linejoin="round"/>
</svg>
