<svg width="24" height="24" viewBox="0 0 24 24" fill="none" xmlns="http://www.w3.org/2000/svg">
<path d="M9.533 11.1499C9.36388 11.319 9.22976 11.5199 9.13831 11.7409C9.04685 11.9619 8.99985 12.1987 9 12.4379V14.9999H11.578C12.061 14.9999 12.525 14.8079 12.867 14.4659L20.467 6.86191C20.6365 6.69285 20.7709 6.49202 20.8627 6.27092C20.9544 6.04982 21.0016 5.81279 21.0016 5.57341C21.0016 5.33404 20.9544 5.09701 20.8627 4.87591C20.7709 4.65481 20.6365 4.45397 20.467 4.28491L19.716 3.53391C19.5469 3.36429 19.346 3.22971 19.1248 3.13788C18.9036 3.04605 18.6665 2.99878 18.427 2.99878C18.1875 2.99878 17.9504 3.04605 17.7292 3.13788C17.508 3.22971 17.3071 3.36429 17.138 3.53391L9.533 11.1499Z" stroke="#4D5BBE" stroke-linecap="round" stroke-linejoin="round"/>
<path d="M21 12C21 16.243 21 18.364 19.682 19.682C18.364 21 16.242 21 12 21C7.758 21 5.636 21 4.318 19.682C3 18.364 3 16.242 3 12C3 7.758 3 5.636 4.318 4.318C5.636 3 7.758 3 12 3" stroke="#4D5BBE" stroke-linecap="round" stroke-linejoin="round"/>
</svg>
